<svg width="24" height="24" viewBox="0 0 24 24" fill="none" xmlns="http://www.w3.org/2000/svg">
<g clip-path="url(#clip0_13_5286)">
<path d="M13.73 21C13.5542 21.3031 13.3019 21.5547 12.9982 21.7295C12.6946 21.9044 12.3504 21.9965 12 21.9965C11.6496 21.9965 11.3054 21.9044 11.0018 21.7295C10.6982 21.5547 10.4458 21.3031 10.27 21" stroke="#000" stroke-width="1.5" stroke-linecap="round" stroke-linejoin="round"/>
<path d="M18.63 13C18.1851 11.3714 17.973 9.68804 18 8" stroke="#000" stroke-width="1.5" stroke-linecap="round" stroke-linejoin="round"/>
<path d="M6.26 6.25977C6.08627 6.82338 5.99861 7.40999 6 7.99977C6 14.9998 3 16.9998 3 16.9998H17" stroke="#000" stroke-width="1.5" stroke-linecap="round" stroke-linejoin="round"/>
<path d="M18 8.00011C18.0017 6.91318 17.708 5.84622 17.1504 4.91321C16.5928 3.98019 15.7922 3.21617 14.8342 2.70275C13.8761 2.18934 12.7966 1.94581 11.7109 1.99818C10.6253 2.05056 9.57421 2.39686 8.67004 3.00011" stroke="#000" stroke-width="1.5" stroke-linecap="round" stroke-linejoin="round"/>
<path d="M1 1L23 23" stroke="#000" stroke-width="1.5" stroke-linecap="round" stroke-linejoin="round"/>
</g>
<defs>
<clipPath id="clip0_13_5286">
<rect width="24" height="24" fill="white"/>
</clipPath>
</defs>
</svg>
